<svg xmlns="http://www.w3.org/2000/svg" width="64" height="64" viewBox="0 0 64 64">
    <path fill="#0097FF" fill-rule="evenodd" d="M55 18.578v26.874c0 .756-.616 1.369-1.375 1.369a1.371 1.371 0 0 1-1.374-1.369v-20.58H12.749v23.762c0 2.554 2.087 4.631 4.651 4.631h36.225c.759 0 1.375.612 1.375 1.368 0 .755-.616 1.367-1.375 1.367H17.4c-4.08 0-7.4-3.304-7.4-7.366V18.578c0-4.061 3.32-7.366 7.4-7.366h3.606V9.499a1.507 1.507 0 0 1 3.011 0v1.713h6.937V9.499c0-.824.678-1.499 1.505-1.499.828 0 1.506.675 1.506 1.499v1.713h6.937V9.499a1.507 1.507 0 0 1 3.011 0v1.713H47.6c4.081 0 7.4 3.305 7.4 7.366zm-.85 30.082c.083.041.166.083.24.125.074.052.146.115.21.177.25.25.398.604.398.97 0 .082-.01.176-.021.26-.02.083-.053.177-.084.26a1.184 1.184 0 0 1-.126.23c-.053.073-.105.146-.168.207a1.022 1.022 0 0 1-.208.167c-.075.052-.158.094-.241.136a1.822 1.822 0 0 1-.262.073 1.067 1.067 0 0 1-.262.032c-.356 0-.712-.147-.974-.408a1.542 1.542 0 0 1-.294-.437 2.826 2.826 0 0 1-.083-.26 2.277 2.277 0 0 1-.021-.26c0-.095.01-.188.02-.272.021-.094.042-.177.084-.26a.925.925 0 0 1 .127-.229 1.11 1.11 0 0 1 .166-.209c.063-.062.137-.125.21-.177.075-.042.157-.084.24-.125.084-.032.169-.053.252-.074.178-.04.367-.04.535 0 .095.021.178.042.262.074zM52.25 22.137v-3.559c0-2.552-2.086-4.629-4.651-4.629h-3.687v2.009a1.506 1.506 0 0 1-3.011 0v-2.009h-6.937v2.009a1.507 1.507 0 0 1-3.011 0v-2.009h-6.937v2.009a1.507 1.507 0 0 1-3.011 0v-2.009H17.4c-2.564 0-4.651 2.077-4.651 4.629v3.559h39.502zM25.457 34.119c0 2.515-2.056 4.56-4.582 4.56-2.527 0-4.583-2.045-4.583-4.56 0-2.515 2.056-4.561 4.583-4.561 2.526 0 4.582 2.046 4.582 4.56zm6.937 8.188a2.09 2.09 0 0 1 2.095 2.085 2.09 2.09 0 0 1-2.095 2.084 2.09 2.09 0 0 1-2.094-2.084 2.09 2.09 0 0 1 2.094-2.085zm-11.519-6.363a1.83 1.83 0 0 0 1.833-1.825 1.83 1.83 0 0 0-1.833-1.824 1.83 1.83 0 0 0-1.834 1.824 1.83 1.83 0 0 0 1.834 1.825zm11.519-3.91a2.09 2.09 0 0 1 2.095 2.085 2.09 2.09 0 0 1-2.095 2.084A2.09 2.09 0 0 1 30.3 34.12a2.09 2.09 0 0 1 2.094-2.085zm9.424 2.085a2.09 2.09 0 0 1 2.095-2.085 2.09 2.09 0 0 1 2.094 2.085 2.09 2.09 0 0 1-2.094 2.084 2.09 2.09 0 0 1-2.095-2.084zM18.78 44.392a2.09 2.09 0 0 1 2.095-2.085 2.09 2.09 0 0 1 2.093 2.085 2.088 2.088 0 0 1-2.093 2.084 2.089 2.089 0 0 1-2.095-2.084z"/>
</svg>
