<?xml version="1.0" encoding="UTF-8"?>
<svg width="234px" height="100px" viewBox="0 0 234 100" version="1.1" xmlns="http://www.w3.org/2000/svg" xmlns:xlink="http://www.w3.org/1999/xlink">
    <!-- Generator: sketchtool 56.3 (101010) - https://sketch.com -->
    <title>9B67F780-1A38-438A-A8B1-8DB7E55AA800</title>
    <desc>Created with sketchtool.</desc>
    <defs>
        <path d="M215.451394,41.7683636 L215.451394,70.9829091 C215.451394,71.4160909 215.098692,71.767 214.664318,71.767 L206.968767,71.767 C206.53348,71.767 206.181235,71.4160909 206.181235,70.9829091 L206.181235,68.8733636 C204.141681,71.2129091 201.113834,72.6288182 196.97313,72.6288182 C188.876969,72.6288182 182.203021,65.5488182 182.203021,56.3756364 C182.203021,47.202 188.876969,40.122 196.97313,40.122 C201.113834,40.122 204.141681,41.5379091 206.181235,43.8774545 L206.181235,41.7683636 C206.181235,41.3351818 206.53348,40.9842727 206.968767,40.9842727 L214.664318,40.9842727 C215.098692,40.9842727 215.451394,41.3351818 215.451394,41.7683636 Z M15.8744642,61.7635909 L23.1059819,57.5872273 C23.4988355,57.3604091 24.0034767,57.5085909 24.2074321,57.9126818 C25.8034854,61.0804091 28.4316349,63.1585909 32.9857252,63.1585909 C37.7068126,63.1585909 38.8871985,61.3017727 38.8871985,59.6308636 C38.8871985,56.9699545 36.4023196,55.9176818 29.8793985,54.1231364 C23.4189872,52.3285909 17.0822267,49.2340455 17.0822267,40.9413182 C17.0822267,32.5867727 24.1640859,27.7595 31.6812323,27.7595 C38.5687179,27.7595 44.0130026,30.9235909 47.2343109,36.8631364 C47.4359848,37.2358636 47.302296,37.7017727 46.9354501,37.9158636 L39.919751,42.0058636 C39.5341978,42.2304091 39.0395947,42.0917727 38.8256012,41.7008636 C37.3636931,39.0354091 35.3360027,37.4140455 31.6812323,37.4140455 C28.5749055,37.4140455 27.0217422,38.9608636 27.0217422,40.6935909 C27.0217422,42.6740455 28.078021,44.0358636 34.8491563,46.0781364 C41.4341309,48.0581364 48.826714,50.3481364 48.826714,59.5072273 C48.826714,67.8617727 42.1176323,72.8126818 32.6750013,72.8126818 C23.8547308,72.8126818 18.10611,68.7713182 15.5409265,62.7517727 C15.3853364,62.3867727 15.5299759,61.9626818 15.8744642,61.7635909 Z M80.6335742,41.0031818 C81.1797365,41.0031818 81.5616395,41.5409091 81.3800416,42.0536364 L71.1288897,71.0181818 C67.7542727,80.5631818 62.4505209,84.5177273 54.1974014,84.3509091 C53.7675894,84.3422727 53.4240136,83.99 53.4240136,83.5618182 L53.4240136,76.4313636 C53.4240136,76.0095455 53.7589202,75.6618182 54.1823443,75.6445455 C57.9041873,75.4918182 59.7927135,74.1531818 61.0753052,70.8281818 C61.1487656,70.6368182 61.1483093,70.425 61.0689173,70.2359091 L49.2842219,42.095 C49.0665782,41.5759091 49.44985,41.0031818 50.0147197,41.0031818 L58.5224412,41.0031818 C58.8555227,41.0031818 59.1525583,41.2109091 59.266171,41.5227273 L65.9725151,59.9404545 L71.640375,41.56 C71.7425808,41.2290909 72.0496545,41.0031818 72.3968806,41.0031818 L80.6335742,41.0031818 Z M165.952798,56.4748182 C165.952798,65.6957273 159.243716,72.8125455 151.105578,72.8125455 C146.943429,72.8125455 143.899612,71.3893636 141.849564,69.0375455 L141.849564,83.4502727 C141.849564,83.9325455 141.457167,84.3234545 140.973058,84.3234545 L133.408003,84.3234545 C132.923894,84.3234545 132.53104,83.9325455 132.53104,83.4502727 L132.53104,41.8761818 C132.53104,41.3939091 132.923894,41.003 133.408003,41.003 L140.973058,41.003 C141.457167,41.003 141.849564,41.3939091 141.849564,41.8761818 L141.849564,43.9116364 C143.899612,41.5598182 146.943429,40.1366364 151.105578,40.1366364 C159.243716,40.1366364 165.952798,47.2534545 165.952798,56.4748182 Z M170.23545,26.6901364 L177.971153,26.6901364 C178.408265,26.6901364 178.762335,27.0433182 178.762335,27.4783182 L178.762335,71.0787727 C178.762335,71.5142273 178.408265,71.8674091 177.971153,71.8674091 L170.23545,71.8674091 C169.798338,71.8674091 169.444267,71.5142273 169.444267,71.0787727 L169.444267,27.4783182 C169.444267,27.0433182 169.798338,26.6901364 170.23545,26.6901364 Z M116.077182,39.6890455 C123.221551,39.6890455 127.877847,44.7640455 127.877847,52.4995 L127.877847,70.7104091 C127.877847,71.1458636 127.646059,71.8672273 127.208946,71.8672273 L119.473244,71.8672273 C119.036131,71.8672273 118.698944,71.1458636 118.698944,70.7104091 L118.698944,53.3040455 C118.698944,50.2099545 117.277644,48.2295 114.295881,48.2295 C111.19001,48.2295 109.52004,50.3954091 109.52004,54.0467727 L109.52004,70.7104091 C109.52004,71.1458636 109.009467,71.8672273 108.572355,71.8672273 L106.16048,71.8672273 L104.054767,71.8672273 L101.643348,71.8672273 C101.206236,71.8672273 100.694294,71.1458636 100.694294,70.7104091 L100.694294,54.0467727 C100.694294,50.3954091 99.0247805,48.2295 95.9184537,48.2295 C92.9366904,48.2295 91.5153907,50.2099545 91.5153907,53.3040455 L91.5153907,70.7104091 C91.5153907,71.1458636 91.1795716,71.8672273 90.742003,71.8672273 L83.0067567,71.8672273 C82.569188,71.8672273 82.3364873,71.1458636 82.3364873,70.7104091 L82.3364873,52.4995 C82.3364873,44.7640455 86.9882207,39.6890455 94.1325896,39.6890455 C98.0205171,39.6890455 102.227838,40.0345 105.097357,43.3404091 C107.96642,40.0345 112.189254,39.6890455 116.077182,39.6890455 Z M200.555307,30.3801818 C200.262378,33.2838182 197.661605,35.4010909 194.746914,35.1092727 C191.831767,34.8174545 189.706433,32.2265455 189.999362,29.3229091 C190.292748,26.4188182 192.893065,24.3015455 195.808212,24.5933636 C198.722903,24.8856364 200.848692,27.4760909 200.555307,30.3801818 Z M218.336016,24.1721364 C217.919436,28.2994091 214.223144,31.3089545 210.079702,30.8939545 C205.936717,30.4789545 202.915714,26.7966818 203.332294,22.6694091 C203.748873,18.5416818 207.445165,15.5321364 211.588151,15.9471364 C215.731593,16.3621364 218.752596,20.0444091 218.336016,24.1721364 Z M206.181235,56.3756364 C206.181235,51.7579091 203.091334,48.8647273 198.826979,48.8647273 C194.56308,48.8647273 191.472723,51.7579091 191.472723,56.3756364 C191.472723,60.9929091 194.56308,63.8865455 198.826979,63.8865455 C203.091334,63.8865455 206.181235,60.9929091 206.181235,56.3756364 Z M156.634731,56.4748182 C156.634731,51.8334545 153.528404,48.9248182 149.242147,48.9248182 C144.955891,48.9248182 141.849564,51.8334545 141.849564,56.4748182 C141.849564,61.1161818 144.955891,64.0248182 149.242147,64.0248182 C153.528404,64.0248182 156.634731,61.1161818 156.634731,56.4748182 Z" id="path-1"></path>
    </defs>
    <g id="💎-Components" stroke="none" stroke-width="1" fill="none" fill-rule="evenodd">
        <g id="Components-/-LOGO-/-Sympla-brand">
            <mask id="mask-2" fill="white">
                <use xlink:href="#path-1"></use>
            </mask>
            <use id="Combined-Shape" fill="#0097FF" xlink:href="#path-1"></use>
        </g>
    </g>
</svg>